<svg xmlns="http://www.w3.org/2000/svg" xmlns:xlink="http://www.w3.org/1999/xlink" contentStyleType="text/css" data-diagram-type="ACTIVITY" height="922px" preserveAspectRatio="none" style="width:1420px;height:922px;background:#FFFFFF;" version="1.1" viewBox="0 0 1420 922" width="1420px" zoomAndPan="magnify"><title>Link Expansion</title><defs/><g><text fill="#000000" font-family="sans-serif" font-size="28" font-weight="bold" lengthAdjust="spacing" textLength="218.6953" x="598.0542" y="67.0703">Link Expansion</text><ellipse cx="942.4758" cy="114.9766" fill="#222222" rx="20" ry="20" style="stroke:#222222;stroke-width:2;"/><rect fill="none" height="666.7539" style="stroke:#000000;stroke-width:3;" width="1376.8037" x="22" y="154.9766"/><path d="M218.0391,154.9766 L218.0391,206.9297 L198.0391,226.9297 L22,226.9297" fill="none" style="stroke:#000000;stroke-width:3;"/><text fill="#000000" font-family="sans-serif" font-size="28" font-weight="bold" lengthAdjust="spacing" textLength="176.0391" x="28" y="184.0469">Expand Link</text><text fill="#000000" font-family="sans-serif" font-size="28" font-weight="bold" lengthAdjust="spacing" textLength="113.4629" x="28" y="217.0234">Lambda</text><polygon fill="#F1F1F1" points="742.9773,260.9297,1141.9744,260.9297,1165.9744,284.9297,1141.9744,308.9297,742.9773,308.9297,718.9773,284.9297,742.9773,260.9297" style="stroke:#181818;stroke-width:1;"/><text fill="#000000" font-family="sans-serif" font-size="22" lengthAdjust="spacing" textLength="398.9971" x="742.9773" y="293.2441">Does the short link exist in the table?</text><text fill="#000000" font-family="sans-serif" font-size="22" lengthAdjust="spacing" textLength="34.9658" x="684.0115" y="280.2891">yes</text><text fill="#000000" font-family="sans-serif" font-size="22" lengthAdjust="spacing" textLength="27.167" x="1165.9744" y="280.2891">no</text><polygon fill="#F1F1F1" points="70,378.9297,538.3271,378.9297,562.3271,402.9297,538.3271,426.9297,70,426.9297,46,402.9297,70,378.9297" style="stroke:#181818;stroke-width:1;"/><text fill="#000000" font-family="sans-serif" font-size="22" lengthAdjust="spacing" textLength="27.167" x="312.1636" y="448.1992">no</text><text fill="#000000" font-family="sans-serif" font-size="22" lengthAdjust="spacing" textLength="468.3271" x="70" y="411.2441">Was the link expanded more than 25 times?</text><rect fill="#F1F1F1" height="68.2656" rx="25" ry="25" style="stroke:#181818;stroke-width:1;" width="306.6484" x="150.8394" y="491.1992"/><text fill="#000000" font-family="sans-serif" font-size="24" lengthAdjust="spacing" textLength="266.6484" x="170.8394" y="534.4023">Increment usage count</text><rect fill="#F1F1F1" height="68.2656" rx="25" ry="25" style="stroke:#181818;stroke-width:1;" width="371.9688" x="118.1792" y="629.4648"/><text fill="#000000" font-family="sans-serif" font-size="24" lengthAdjust="spacing" textLength="331.9688" x="138.1792" y="672.668">Redirect to original long link</text><polygon fill="#F1F1F1" points="664.542,378.9297,872.0811,378.9297,896.0811,402.9297,872.0811,426.9297,664.542,426.9297,640.542,402.9297,664.542,378.9297" style="stroke:#181818;stroke-width:1;"/><text fill="#000000" font-family="sans-serif" font-size="22" lengthAdjust="spacing" textLength="34.9658" x="776.3115" y="448.1992">yes</text><text fill="#000000" font-family="sans-serif" font-size="22" lengthAdjust="spacing" textLength="207.5391" x="664.542" y="411.2441">Is the user verified?</text><text fill="#000000" font-family="sans-serif" font-size="22" lengthAdjust="spacing" textLength="27.167" x="896.0811" y="398.2891">no</text><rect fill="#F1F1F1" height="68.2656" rx="25" ry="25" style="stroke:#181818;stroke-width:1;" width="306.6484" x="614.9873" y="491.1992"/><text fill="#000000" font-family="sans-serif" font-size="24" lengthAdjust="spacing" textLength="266.6484" x="634.9873" y="534.4023">Increment usage count</text><rect fill="#F1F1F1" height="68.2656" rx="25" ry="25" style="stroke:#181818;stroke-width:1;" width="371.9688" x="582.3271" y="629.4648"/><text fill="#000000" font-family="sans-serif" font-size="24" lengthAdjust="spacing" textLength="331.9688" x="602.3271" y="672.668">Redirect to original long link</text><rect fill="#F1F1F1" height="68.2656" rx="25" ry="25" style="stroke:#181818;stroke-width:1;" width="170.2539" x="994.2959" y="553.377"/><text fill="#000000" font-family="sans-serif" font-size="24" lengthAdjust="spacing" textLength="130.2539" x="1014.2959" y="596.5801">Return 404</text><rect fill="#F1F1F1" height="68.2656" rx="25" ry="25" style="stroke:#181818;stroke-width:1;" width="170.2539" x="1204.5498" y="328.9297"/><text fill="#000000" font-family="sans-serif" font-size="24" lengthAdjust="spacing" textLength="130.2539" x="1224.5498" y="372.1328">Return 404</text><polygon fill="#F1F1F1" points="942.4758,749.7305,966.4758,773.7305,942.4758,797.7305,918.4758,773.7305,942.4758,749.7305" style="stroke:#181818;stroke-width:1;"/><ellipse cx="942.4758" cy="881.7305" fill="none" rx="20" ry="20" style="stroke:#222222;stroke-width:3;"/><line style="stroke:#222222;stroke-width:5;" x1="930.1015" x2="954.8502" y1="869.3561" y2="894.1048"/><line style="stroke:#222222;stroke-width:5;" x1="954.8502" x2="930.1015" y1="869.3561" y2="894.1048"/><line style="stroke:#181818;stroke-width:2;" x1="304.1636" x2="304.1636" y1="559.4648" y2="629.4648"/><polygon fill="#181818" points="296.1636,609.4648,304.1636,629.4648,312.1636,609.4648,304.1636,617.4648" style="stroke:#181818;stroke-width:2;"/><line style="stroke:#181818;stroke-width:2;" x1="768.3115" x2="768.3115" y1="559.4648" y2="629.4648"/><polygon fill="#181818" points="760.3115,609.4648,768.3115,629.4648,776.3115,609.4648,768.3115,617.4648" style="stroke:#181818;stroke-width:2;"/><line style="stroke:#181818;stroke-width:2;" x1="304.1636" x2="304.1636" y1="426.9297" y2="491.1992"/><polygon fill="#181818" points="296.1636,471.1992,304.1636,491.1992,312.1636,471.1992,304.1636,479.1992" style="stroke:#181818;stroke-width:2;"/><line style="stroke:#181818;stroke-width:2;" x1="304.1636" x2="304.1636" y1="697.7305" y2="737.7305"/><polygon fill="#181818" points="296.1636,717.7305,304.1636,737.7305,312.1636,717.7305,304.1636,725.7305" style="stroke:#181818;stroke-width:2;"/><line style="stroke:#181818;stroke-width:2;" x1="768.3115" x2="768.3115" y1="426.9297" y2="491.1992"/><polygon fill="#181818" points="760.3115,471.1992,768.3115,491.1992,776.3115,471.1992,768.3115,479.1992" style="stroke:#181818;stroke-width:2;"/><line style="stroke:#181818;stroke-width:2;" x1="768.3115" x2="768.3115" y1="697.7305" y2="737.7305"/><polygon fill="#181818" points="760.3115,717.7305,768.3115,737.7305,776.3115,717.7305,768.3115,725.7305" style="stroke:#181818;stroke-width:2;"/><line style="stroke:#181818;stroke-width:2;" x1="562.3271" x2="640.542" y1="402.9297" y2="402.9297"/><polygon fill="#181818" points="620.542,394.9297,640.542,402.9297,620.542,410.9297,628.542,402.9297" style="stroke:#181818;stroke-width:2;"/><line style="stroke:#181818;stroke-width:2;" x1="718.9773" x2="304.1636" y1="284.9297" y2="284.9297"/><line style="stroke:#181818;stroke-width:2;" x1="304.1636" x2="304.1636" y1="284.9297" y2="378.9297"/><polygon fill="#181818" points="296.1636,358.9297,304.1636,378.9297,312.1636,358.9297,304.1636,366.9297" style="stroke:#181818;stroke-width:2;"/><line style="stroke:#181818;stroke-width:2;" x1="896.0811" x2="1079.4229" y1="402.9297" y2="402.9297"/><line style="stroke:#181818;stroke-width:2;" x1="1079.4229" x2="1079.4229" y1="402.9297" y2="553.377"/><polygon fill="#181818" points="1071.4229,533.377,1079.4229,553.377,1087.4229,533.377,1079.4229,541.377" style="stroke:#181818;stroke-width:2;"/><line style="stroke:#181818;stroke-width:2;" x1="1079.4229" x2="1079.4229" y1="621.6426" y2="737.7305"/><polygon fill="#181818" points="1071.4229,717.7305,1079.4229,737.7305,1087.4229,717.7305,1079.4229,725.7305" style="stroke:#181818;stroke-width:2;"/><line style="stroke:#181818;stroke-width:2;" x1="304.1636" x2="1079.4229" y1="737.7305" y2="737.7305"/><line style="stroke:#181818;stroke-width:2;" x1="1165.9744" x2="1289.6768" y1="284.9297" y2="284.9297"/><line style="stroke:#181818;stroke-width:2;" x1="1289.6768" x2="1289.6768" y1="284.9297" y2="328.9297"/><polygon fill="#181818" points="1281.6768,308.9297,1289.6768,328.9297,1297.6768,308.9297,1289.6768,316.9297" style="stroke:#181818;stroke-width:2;"/><line style="stroke:#181818;stroke-width:2;" x1="595.2749" x2="595.2749" y1="737.7305" y2="773.7305"/><line style="stroke:#181818;stroke-width:2;" x1="595.2749" x2="918.4758" y1="773.7305" y2="773.7305"/><polygon fill="#181818" points="898.4758,765.7305,918.4758,773.7305,898.4758,781.7305,906.4758,773.7305" style="stroke:#181818;stroke-width:2;"/><line style="stroke:#181818;stroke-width:2;" x1="1289.6768" x2="1289.6768" y1="397.1953" y2="773.7305"/><line style="stroke:#181818;stroke-width:2;" x1="1289.6768" x2="966.4758" y1="773.7305" y2="773.7305"/><polygon fill="#181818" points="986.4758,765.7305,966.4758,773.7305,986.4758,781.7305,978.4758,773.7305" style="stroke:#181818;stroke-width:2;"/><line style="stroke:#181818;stroke-width:2;" x1="942.4758" x2="942.4758" y1="134.9766" y2="260.9297"/><polygon fill="#181818" points="934.4758,240.9297,942.4758,260.9297,950.4758,240.9297,942.4758,248.9297" style="stroke:#181818;stroke-width:2;"/><line style="stroke:#181818;stroke-width:2;" x1="942.4758" x2="942.4758" y1="797.7305" y2="861.7305"/><polygon fill="#181818" points="934.4758,841.7305,942.4758,861.7305,950.4758,841.7305,942.4758,849.7305" style="stroke:#181818;stroke-width:2;"/><!--SRC=[bP4nQmCn38Lt_mfnK-AfX7HfXoxj4CYKfKiMvwox4_N9mTALXDB_NllkUX1eeTKafFVfFMCb3GZLdlWDNYvdnqAHAoEro-EDCQ8kgJ6Gwvmxqho6ojfHww5mrXxPshthJzvPMy77gAO6LiyH1RH3a2ucXL1Cy4AYG3pErPq2FgrBpx2wegn7TiPVtKJFN3543trC6UmSm-OUb7gKvG37XN_OSPsmHrOOnBK8THnO7vVr0Jqbh1KqGapK4hi08N8xkYqw388bocvACWWcUCT43Q7_CVSVlF_Z_vtXvctp0HqIm_PkEucHFJNJHzq2loXBzsboRt9z0G00]--></g></svg>