<svg xmlns="http://www.w3.org/2000/svg" xmlns:xlink="http://www.w3.org/1999/xlink" contentStyleType="text/css" data-diagram-type="ACTIVITY" height="850px" preserveAspectRatio="none" style="width:806px;height:850px;background:#FFFFFF;" version="1.1" viewBox="0 0 806 850" width="806px" zoomAndPan="magnify"><title>Listing Shortlinks on Homepage</title><defs/><g><text fill="#000000" font-family="sans-serif" font-size="28" font-weight="bold" lengthAdjust="spacing" textLength="462.1641" x="169.4473" y="67.0703">Listing Shortlinks on Homepage</text><ellipse cx="439.1611" cy="114.9766" fill="#222222" rx="20" ry="20" style="stroke:#222222;stroke-width:2;"/><rect fill="#F1F1F1" height="68.2656" rx="25" ry="25" style="stroke:#181818;stroke-width:1;" width="345.625" x="266.3486" y="174.9766"/><text fill="#000000" font-family="sans-serif" font-size="24" lengthAdjust="spacing" textLength="305.625" x="286.3486" y="218.1797">Fetch static HTML from S3</text><polygon fill="#F1F1F1" points="356.9888,283.2422,521.3335,283.2422,545.3335,307.2422,521.3335,331.2422,356.9888,331.2422,332.9888,307.2422,356.9888,283.2422" style="stroke:#181818;stroke-width:1;"/><text fill="#000000" font-family="sans-serif" font-size="22" lengthAdjust="spacing" textLength="164.3447" x="356.9888" y="315.5566">User logged in?</text><text fill="#000000" font-family="sans-serif" font-size="22" lengthAdjust="spacing" textLength="34.9658" x="298.0229" y="302.6016">yes</text><text fill="#000000" font-family="sans-serif" font-size="22" lengthAdjust="spacing" textLength="27.167" x="545.3335" y="302.6016">no</text><rect fill="none" height="334.75" style="stroke:#000000;stroke-width:3;" width="432.793" x="22" y="351.2422"/><path d="M177.1875,351.2422 L177.1875,403.1953 L157.1875,423.1953 L22,423.1953" fill="none" style="stroke:#000000;stroke-width:3;"/><text fill="#000000" font-family="sans-serif" font-size="28" font-weight="bold" lengthAdjust="spacing" textLength="135.1875" x="28" y="380.3125">Get Links</text><text fill="#000000" font-family="sans-serif" font-size="28" font-weight="bold" lengthAdjust="spacing" textLength="113.4629" x="28" y="413.2891">Lambda</text><rect fill="#F1F1F1" height="96.5313" rx="25" ry="25" style="stroke:#181818;stroke-width:1;" width="392.793" x="42" y="457.1953"/><text fill="#000000" font-family="sans-serif" font-size="24" lengthAdjust="spacing" textLength="317.9414" x="62" y="500.3984">Read DynamoDB secondary</text><text fill="#000000" font-family="sans-serif" font-size="24" lengthAdjust="spacing" textLength="352.793" x="62" y="528.6641">index to fetch all links by user</text><rect fill="#F1F1F1" height="68.2656" rx="25" ry="25" style="stroke:#181818;stroke-width:1;" width="271.4102" x="102.6914" y="593.7266"/><text fill="#000000" font-family="sans-serif" font-size="24" lengthAdjust="spacing" textLength="231.4102" x="122.6914" y="636.9297">Sort by usage count</text><rect fill="#F1F1F1" height="68.2656" rx="25" ry="25" style="stroke:#181818;stroke-width:1;" width="290.2656" x="494.793" y="351.2422"/><text fill="#000000" font-family="sans-serif" font-size="24" lengthAdjust="spacing" textLength="250.2656" x="514.793" y="394.4453">Redirect to auth page</text><polygon fill="#F1F1F1" points="439.1611,697.9922,463.1611,721.9922,439.1611,745.9922,415.1611,721.9922,439.1611,697.9922" style="stroke:#181818;stroke-width:1;"/><ellipse cx="439.1611" cy="807.9922" fill="none" rx="22" ry="22" style="stroke:#222222;stroke-width:2;"/><ellipse cx="439.1611" cy="807.9922" fill="#222222" rx="12" ry="12" style="stroke:#222222;stroke-width:2;"/><line style="stroke:#181818;stroke-width:2;" x1="439.1611" x2="439.1611" y1="134.9766" y2="174.9766"/><polygon fill="#181818" points="431.1611,154.9766,439.1611,174.9766,447.1611,154.9766,439.1611,162.9766" style="stroke:#181818;stroke-width:2;"/><line style="stroke:#181818;stroke-width:2;" x1="238.3965" x2="238.3965" y1="553.7266" y2="593.7266"/><polygon fill="#181818" points="230.3965,573.7266,238.3965,593.7266,246.3965,573.7266,238.3965,581.7266" style="stroke:#181818;stroke-width:2;"/><line style="stroke:#181818;stroke-width:2;" x1="332.9888" x2="238.3965" y1="307.2422" y2="307.2422"/><line style="stroke:#181818;stroke-width:2;" x1="238.3965" x2="238.3965" y1="307.2422" y2="457.1953"/><polygon fill="#181818" points="230.3965,437.1953,238.3965,457.1953,246.3965,437.1953,238.3965,445.1953" style="stroke:#181818;stroke-width:2;"/><line style="stroke:#181818;stroke-width:2;" x1="545.3335" x2="639.9258" y1="307.2422" y2="307.2422"/><line style="stroke:#181818;stroke-width:2;" x1="639.9258" x2="639.9258" y1="307.2422" y2="351.2422"/><polygon fill="#181818" points="631.9258,331.2422,639.9258,351.2422,647.9258,331.2422,639.9258,339.2422" style="stroke:#181818;stroke-width:2;"/><line style="stroke:#181818;stroke-width:2;" x1="238.3965" x2="238.3965" y1="661.9922" y2="721.9922"/><line style="stroke:#181818;stroke-width:2;" x1="238.3965" x2="415.1611" y1="721.9922" y2="721.9922"/><polygon fill="#181818" points="395.1611,713.9922,415.1611,721.9922,395.1611,729.9922,403.1611,721.9922" style="stroke:#181818;stroke-width:2;"/><line style="stroke:#181818;stroke-width:2;" x1="639.9258" x2="639.9258" y1="419.5078" y2="721.9922"/><line style="stroke:#181818;stroke-width:2;" x1="639.9258" x2="463.1611" y1="721.9922" y2="721.9922"/><polygon fill="#181818" points="483.1611,713.9922,463.1611,721.9922,483.1611,729.9922,475.1611,721.9922" style="stroke:#181818;stroke-width:2;"/><line style="stroke:#181818;stroke-width:2;" x1="439.1611" x2="439.1611" y1="243.2422" y2="283.2422"/><polygon fill="#181818" points="431.1611,263.2422,439.1611,283.2422,447.1611,263.2422,439.1611,271.2422" style="stroke:#181818;stroke-width:2;"/><line style="stroke:#181818;stroke-width:2;" x1="439.1611" x2="439.1611" y1="745.9922" y2="785.9922"/><polygon fill="#181818" points="431.1611,765.9922,439.1611,785.9922,447.1611,765.9922,439.1611,773.9922" style="stroke:#181818;stroke-width:2;"/><!--SRC=[9O-nJiGm44HxVyKeLSubT4c1X4vmHMW8TDVux4so8bb7zaOYGlmx3bUED7hpHbbdGjLnLfOH_HIJpYnV6L5mYGkjRgJAPEzAxS6Oh2wfQLv8_OGIb3qk7syTXXGNz8-juG7rPwQ4EOuZ1R0ydQ0J2UgTyici1S3A1LzP-qgAxfYpzYhMTcwv1MTjXH_Jl9CBEE_YbdX-HYOV9RYqNuKbq3SqOlYtSFECk_9jnrQMMzFqvSOz5dtuk8csvjSOcZEXbdWwy84JUJr0RjC9nzFMa0GUZfzn_GC0]--></g></svg>