<svg xmlns="http://www.w3.org/2000/svg" xmlns:xlink="http://www.w3.org/1999/xlink" contentStyleType="text/css" data-diagram-type="ACTIVITY" height="424px" preserveAspectRatio="none" style="width:710px;height:424px;background:#FFFFFF;" version="1.1" viewBox="0 0 710 424" width="710px" zoomAndPan="magnify"><defs/><g><ellipse cx="471.2379" cy="20" fill="#222222" rx="10" ry="10" style="stroke:#222222;stroke-width:1;"/><rect fill="none" height="333.377" style="stroke:#000000;stroke-width:1.5;" width="688.4019" x="11" y="40"/><path d="M104.0293,40 L104.0293,65.9766 L94.0293,75.9766 L11,75.9766" fill="none" style="stroke:#000000;stroke-width:1.5;"/><text fill="#000000" font-family="sans-serif" font-size="14" lengthAdjust="spacing" textLength="83.0293" x="14" y="54.5352">Expand Link</text><text fill="#000000" font-family="sans-serif" font-size="14" lengthAdjust="spacing" textLength="53.6211" x="14" y="71.0234">Lambda</text><polygon fill="#F1F1F1" points="371.4886,92.9766,570.9872,92.9766,582.9872,104.9766,570.9872,116.9766,371.4886,116.9766,359.4886,104.9766,371.4886,92.9766" style="stroke:#181818;stroke-width:0.5;"/><text fill="#000000" font-family="sans-serif" font-size="11" lengthAdjust="spacing" textLength="199.4985" x="371.4886" y="109.1338">Does the short link exist in the table?</text><text fill="#000000" font-family="sans-serif" font-size="11" lengthAdjust="spacing" textLength="17.4829" x="342.0057" y="102.6563">yes</text><text fill="#000000" font-family="sans-serif" font-size="11" lengthAdjust="spacing" textLength="13.5835" x="582.9872" y="102.6563">no</text><polygon fill="#F1F1F1" points="35,151.9766,269.1636,151.9766,281.1636,163.9766,269.1636,175.9766,35,175.9766,23,163.9766,35,151.9766" style="stroke:#181818;stroke-width:0.5;"/><text fill="#000000" font-family="sans-serif" font-size="11" lengthAdjust="spacing" textLength="13.5835" x="156.0818" y="186.6113">no</text><text fill="#000000" font-family="sans-serif" font-size="11" lengthAdjust="spacing" textLength="234.1636" x="35" y="168.1338">Was the link expanded more than 25 times?</text><rect fill="#F1F1F1" height="34.1328" rx="12.5" ry="12.5" style="stroke:#181818;stroke-width:0.5;" width="153.3242" x="75.4197" y="208.1113"/><text fill="#000000" font-family="sans-serif" font-size="12" lengthAdjust="spacing" textLength="133.3242" x="85.4197" y="229.7129">Increment usage count</text><rect fill="#F1F1F1" height="34.1328" rx="12.5" ry="12.5" style="stroke:#181818;stroke-width:0.5;" width="185.9844" x="59.0896" y="277.2441"/><text fill="#000000" font-family="sans-serif" font-size="12" lengthAdjust="spacing" textLength="165.9844" x="69.0896" y="298.8457">Redirect to original long link</text><polygon fill="#F1F1F1" points="332.271,151.9766,436.0405,151.9766,448.0405,163.9766,436.0405,175.9766,332.271,175.9766,320.271,163.9766,332.271,151.9766" style="stroke:#181818;stroke-width:0.5;"/><text fill="#000000" font-family="sans-serif" font-size="11" lengthAdjust="spacing" textLength="17.4829" x="388.1558" y="186.6113">yes</text><text fill="#000000" font-family="sans-serif" font-size="11" lengthAdjust="spacing" textLength="103.7695" x="332.271" y="168.1338">Is the user verified?</text><text fill="#000000" font-family="sans-serif" font-size="11" lengthAdjust="spacing" textLength="13.5835" x="448.0405" y="161.6563">no</text><rect fill="#F1F1F1" height="34.1328" rx="12.5" ry="12.5" style="stroke:#181818;stroke-width:0.5;" width="153.3242" x="307.4937" y="208.1113"/><text fill="#000000" font-family="sans-serif" font-size="12" lengthAdjust="spacing" textLength="133.3242" x="317.4937" y="229.7129">Increment usage count</text><rect fill="#F1F1F1" height="34.1328" rx="12.5" ry="12.5" style="stroke:#181818;stroke-width:0.5;" width="185.9844" x="291.1636" y="277.2441"/><text fill="#000000" font-family="sans-serif" font-size="12" lengthAdjust="spacing" textLength="165.9844" x="301.1636" y="298.8457">Redirect to original long link</text><rect fill="#F1F1F1" height="34.1328" rx="12.5" ry="12.5" style="stroke:#181818;stroke-width:0.5;" width="85.127" x="497.1479" y="239.2002"/><text fill="#000000" font-family="sans-serif" font-size="12" lengthAdjust="spacing" textLength="65.127" x="507.1479" y="260.8018">Return 404</text><rect fill="#F1F1F1" height="34.1328" rx="12.5" ry="12.5" style="stroke:#181818;stroke-width:0.5;" width="85.127" x="602.2749" y="126.9766"/><text fill="#000000" font-family="sans-serif" font-size="12" lengthAdjust="spacing" textLength="65.127" x="612.2749" y="148.5781">Return 404</text><polygon fill="#F1F1F1" points="471.2379,337.377,483.2379,349.377,471.2379,361.377,459.2379,349.377,471.2379,337.377" style="stroke:#181818;stroke-width:0.5;"/><ellipse cx="471.2379" cy="403.377" fill="none" rx="10" ry="10" style="stroke:#222222;stroke-width:1.5;"/><line style="stroke:#222222;stroke-width:2.5;" x1="465.0507" x2="477.4251" y1="397.1898" y2="409.5641"/><line style="stroke:#222222;stroke-width:2.5;" x1="477.4251" x2="465.0507" y1="397.1898" y2="409.5641"/><line style="stroke:#181818;stroke-width:1;" x1="152.0818" x2="152.0818" y1="242.2441" y2="277.2441"/><polygon fill="#181818" points="148.0818,267.2441,152.0818,277.2441,156.0818,267.2441,152.0818,271.2441" style="stroke:#181818;stroke-width:1;"/><line style="stroke:#181818;stroke-width:1;" x1="384.1558" x2="384.1558" y1="242.2441" y2="277.2441"/><polygon fill="#181818" points="380.1558,267.2441,384.1558,277.2441,388.1558,267.2441,384.1558,271.2441" style="stroke:#181818;stroke-width:1;"/><line style="stroke:#181818;stroke-width:1;" x1="152.0818" x2="152.0818" y1="175.9766" y2="208.1113"/><polygon fill="#181818" points="148.0818,198.1113,152.0818,208.1113,156.0818,198.1113,152.0818,202.1113" style="stroke:#181818;stroke-width:1;"/><line style="stroke:#181818;stroke-width:1;" x1="152.0818" x2="152.0818" y1="311.377" y2="331.377"/><polygon fill="#181818" points="148.0818,321.377,152.0818,331.377,156.0818,321.377,152.0818,325.377" style="stroke:#181818;stroke-width:1;"/><line style="stroke:#181818;stroke-width:1;" x1="384.1558" x2="384.1558" y1="175.9766" y2="208.1113"/><polygon fill="#181818" points="380.1558,198.1113,384.1558,208.1113,388.1558,198.1113,384.1558,202.1113" style="stroke:#181818;stroke-width:1;"/><line style="stroke:#181818;stroke-width:1;" x1="384.1558" x2="384.1558" y1="311.377" y2="331.377"/><polygon fill="#181818" points="380.1558,321.377,384.1558,331.377,388.1558,321.377,384.1558,325.377" style="stroke:#181818;stroke-width:1;"/><line style="stroke:#181818;stroke-width:1;" x1="281.1636" x2="320.271" y1="163.9766" y2="163.9766"/><polygon fill="#181818" points="310.271,159.9766,320.271,163.9766,310.271,167.9766,314.271,163.9766" style="stroke:#181818;stroke-width:1;"/><line style="stroke:#181818;stroke-width:1;" x1="359.4886" x2="152.0818" y1="104.9766" y2="104.9766"/><line style="stroke:#181818;stroke-width:1;" x1="152.0818" x2="152.0818" y1="104.9766" y2="151.9766"/><polygon fill="#181818" points="148.0818,141.9766,152.0818,151.9766,156.0818,141.9766,152.0818,145.9766" style="stroke:#181818;stroke-width:1;"/><line style="stroke:#181818;stroke-width:1;" x1="448.0405" x2="539.7114" y1="163.9766" y2="163.9766"/><line style="stroke:#181818;stroke-width:1;" x1="539.7114" x2="539.7114" y1="163.9766" y2="239.2002"/><polygon fill="#181818" points="535.7114,229.2002,539.7114,239.2002,543.7114,229.2002,539.7114,233.2002" style="stroke:#181818;stroke-width:1;"/><line style="stroke:#181818;stroke-width:1;" x1="539.7114" x2="539.7114" y1="273.333" y2="331.377"/><polygon fill="#181818" points="535.7114,321.377,539.7114,331.377,543.7114,321.377,539.7114,325.377" style="stroke:#181818;stroke-width:1;"/><line style="stroke:#181818;stroke-width:1;" x1="152.0818" x2="539.7114" y1="331.377" y2="331.377"/><line style="stroke:#181818;stroke-width:1;" x1="582.9872" x2="644.8384" y1="104.9766" y2="104.9766"/><line style="stroke:#181818;stroke-width:1;" x1="644.8384" x2="644.8384" y1="104.9766" y2="126.9766"/><polygon fill="#181818" points="640.8384,116.9766,644.8384,126.9766,648.8384,116.9766,644.8384,120.9766" style="stroke:#181818;stroke-width:1;"/><line style="stroke:#181818;stroke-width:1;" x1="297.6375" x2="297.6375" y1="331.377" y2="349.377"/><line style="stroke:#181818;stroke-width:1;" x1="297.6375" x2="459.2379" y1="349.377" y2="349.377"/><polygon fill="#181818" points="449.2379,345.377,459.2379,349.377,449.2379,353.377,453.2379,349.377" style="stroke:#181818;stroke-width:1;"/><line style="stroke:#181818;stroke-width:1;" x1="644.8384" x2="644.8384" y1="161.1094" y2="349.377"/><line style="stroke:#181818;stroke-width:1;" x1="644.8384" x2="483.2379" y1="349.377" y2="349.377"/><polygon fill="#181818" points="493.2379,345.377,483.2379,349.377,493.2379,353.377,489.2379,349.377" style="stroke:#181818;stroke-width:1;"/><line style="stroke:#181818;stroke-width:1;" x1="471.2379" x2="471.2379" y1="30" y2="92.9766"/><polygon fill="#181818" points="467.2379,82.9766,471.2379,92.9766,475.2379,82.9766,471.2379,86.9766" style="stroke:#181818;stroke-width:1;"/><line style="stroke:#181818;stroke-width:1;" x1="471.2379" x2="471.2379" y1="361.377" y2="393.377"/><polygon fill="#181818" points="467.2379,383.377,471.2379,393.377,475.2379,383.377,471.2379,387.377" style="stroke:#181818;stroke-width:1;"/><!--SRC=[bP6zQWCn48JxUuh1bTs5u3HsaIOf3AxIf4aZd_RkbkXsZRGN78pVtReV7nWIIBOQfFbsHYYPYrOKo7FCYerLi7Wz7Prux5a-FsJlseDt2vm75rTOlYWbM4D8ZKP3o3RGYPE1PJWtTmZqlEgrOFbDQJMm4_xkHdhY-YZoQ3Lci762noSOjvJc1Q8plzb96QabCNJ9rOHIEx7jVFr6dYEL1bDev9h51GILUaYRVHGIzLLsOvCkKSGNHQwO_8-z_v3zd_nRXxktJGkiYuBrmteqatYknW-w1tvnzkfIP5takG80]--></g></svg>