<svg xmlns="http://www.w3.org/2000/svg" xmlns:xlink="http://www.w3.org/1999/xlink" contentStyleType="text/css" data-diagram-type="ACTIVITY" height="418px" preserveAspectRatio="none" style="width:403px;height:418px;background:#FFFFFF;" version="1.1" viewBox="0 0 403 418" width="403px" zoomAndPan="magnify"><defs/><g><ellipse cx="219.5806" cy="20" fill="#222222" rx="10" ry="10" style="stroke:#222222;stroke-width:1;"/><rect fill="#F1F1F1" height="34.1328" rx="12.5" ry="12.5" style="stroke:#181818;stroke-width:0.5;" width="172.8125" x="133.1743" y="50"/><text fill="#000000" font-family="sans-serif" font-size="12" lengthAdjust="spacing" textLength="152.8125" x="143.1743" y="71.6016">Fetch static HTML from S3</text><polygon fill="#F1F1F1" points="178.4944,104.1328,260.6667,104.1328,272.6667,116.1328,260.6667,128.1328,178.4944,128.1328,166.4944,116.1328,178.4944,104.1328" style="stroke:#181818;stroke-width:0.5;"/><text fill="#000000" font-family="sans-serif" font-size="11" lengthAdjust="spacing" textLength="82.1724" x="178.4944" y="120.29">User logged in?</text><text fill="#000000" font-family="sans-serif" font-size="11" lengthAdjust="spacing" textLength="17.4829" x="149.0115" y="113.8125">yes</text><text fill="#000000" font-family="sans-serif" font-size="11" lengthAdjust="spacing" textLength="13.5835" x="272.6667" y="113.8125">no</text><rect fill="none" height="167.375" style="stroke:#000000;stroke-width:1.5;" width="216.3965" x="11" y="138.1328"/><path d="M84.1025,138.1328 L84.1025,164.1094 L74.1025,174.1094 L11,174.1094" fill="none" style="stroke:#000000;stroke-width:1.5;"/><text fill="#000000" font-family="sans-serif" font-size="14" lengthAdjust="spacing" textLength="63.1025" x="14" y="152.668">Get Links</text><text fill="#000000" font-family="sans-serif" font-size="14" lengthAdjust="spacing" textLength="53.6211" x="14" y="169.1563">Lambda</text><rect fill="#F1F1F1" height="48.2656" rx="12.5" ry="12.5" style="stroke:#181818;stroke-width:0.5;" width="196.3965" x="21" y="191.1094"/><text fill="#000000" font-family="sans-serif" font-size="12" lengthAdjust="spacing" textLength="158.9707" x="31" y="212.7109">Read DynamoDB secondary</text><text fill="#000000" font-family="sans-serif" font-size="12" lengthAdjust="spacing" textLength="176.3965" x="31" y="226.8438">index to fetch all links by user</text><rect fill="#F1F1F1" height="34.1328" rx="12.5" ry="12.5" style="stroke:#181818;stroke-width:0.5;" width="135.7051" x="51.3457" y="259.375"/><text fill="#000000" font-family="sans-serif" font-size="12" lengthAdjust="spacing" textLength="115.7051" x="61.3457" y="280.9766">Sort by usage count</text><rect fill="#F1F1F1" height="34.1328" rx="12.5" ry="12.5" style="stroke:#181818;stroke-width:0.5;" width="145.1328" x="247.3965" y="138.1328"/><text fill="#000000" font-family="sans-serif" font-size="12" lengthAdjust="spacing" textLength="125.1328" x="257.3965" y="159.7344">Redirect to auth page</text><polygon fill="#F1F1F1" points="219.5806,311.5078,231.5806,323.5078,219.5806,335.5078,207.5806,323.5078,219.5806,311.5078" style="stroke:#181818;stroke-width:0.5;"/><ellipse cx="219.5806" cy="365.5078" fill="none" rx="10" ry="10" style="stroke:#222222;stroke-width:1.5;"/><line style="stroke:#222222;stroke-width:2.5;" x1="213.3934" x2="225.7678" y1="359.3206" y2="371.695"/><line style="stroke:#222222;stroke-width:2.5;" x1="225.7678" x2="213.3934" y1="359.3206" y2="371.695"/><ellipse cx="219.5806" cy="396.5078" fill="none" rx="11" ry="11" style="stroke:#222222;stroke-width:1;"/><ellipse cx="219.5806" cy="396.5078" fill="#222222" rx="6" ry="6" style="stroke:#222222;stroke-width:1;"/><line style="stroke:#181818;stroke-width:1;" x1="219.5806" x2="219.5806" y1="30" y2="50"/><polygon fill="#181818" points="215.5806,40,219.5806,50,223.5806,40,219.5806,44" style="stroke:#181818;stroke-width:1;"/><line style="stroke:#181818;stroke-width:1;" x1="119.1982" x2="119.1982" y1="239.375" y2="259.375"/><polygon fill="#181818" points="115.1982,249.375,119.1982,259.375,123.1982,249.375,119.1982,253.375" style="stroke:#181818;stroke-width:1;"/><line style="stroke:#181818;stroke-width:1;" x1="166.4944" x2="119.1982" y1="116.1328" y2="116.1328"/><line style="stroke:#181818;stroke-width:1;" x1="119.1982" x2="119.1982" y1="116.1328" y2="191.1094"/><polygon fill="#181818" points="115.1982,181.1094,119.1982,191.1094,123.1982,181.1094,119.1982,185.1094" style="stroke:#181818;stroke-width:1;"/><line style="stroke:#181818;stroke-width:1;" x1="272.6667" x2="319.9629" y1="116.1328" y2="116.1328"/><line style="stroke:#181818;stroke-width:1;" x1="319.9629" x2="319.9629" y1="116.1328" y2="138.1328"/><polygon fill="#181818" points="315.9629,128.1328,319.9629,138.1328,323.9629,128.1328,319.9629,132.1328" style="stroke:#181818;stroke-width:1;"/><line style="stroke:#181818;stroke-width:1;" x1="119.1982" x2="119.1982" y1="293.5078" y2="323.5078"/><line style="stroke:#181818;stroke-width:1;" x1="119.1982" x2="207.5806" y1="323.5078" y2="323.5078"/><polygon fill="#181818" points="197.5806,319.5078,207.5806,323.5078,197.5806,327.5078,201.5806,323.5078" style="stroke:#181818;stroke-width:1;"/><line style="stroke:#181818;stroke-width:1;" x1="319.9629" x2="319.9629" y1="172.2656" y2="323.5078"/><line style="stroke:#181818;stroke-width:1;" x1="319.9629" x2="231.5806" y1="323.5078" y2="323.5078"/><polygon fill="#181818" points="241.5806,319.5078,231.5806,323.5078,241.5806,327.5078,237.5806,323.5078" style="stroke:#181818;stroke-width:1;"/><line style="stroke:#181818;stroke-width:1;" x1="219.5806" x2="219.5806" y1="84.1328" y2="104.1328"/><polygon fill="#181818" points="215.5806,94.1328,219.5806,104.1328,223.5806,94.1328,219.5806,98.1328" style="stroke:#181818;stroke-width:1;"/><line style="stroke:#181818;stroke-width:1;" x1="219.5806" x2="219.5806" y1="335.5078" y2="355.5078"/><polygon fill="#181818" points="215.5806,345.5078,219.5806,355.5078,223.5806,345.5078,219.5806,349.5078" style="stroke:#181818;stroke-width:1;"/><!--SRC=[9OsnJiH044Fx-GhhggIcImeaT0AANCD1TyrSTfAisCn4knE92F7l9E32aYNxkJXdf-PPl9zGd3tsU7s_T1YopRW-j1G7L1z5CfADemH4VQpXaoYgJKfDomw87arnUX575_MptBJZ-HxuX6zgteG3pfloRESd5EbD0-Vjfb63VC4DmzyxfuHqh77ViEwFBJLNo_uVUHJqjggtz4CagGWgjVh0XvYbzmF4gqzOzcfBeY4EXzEkuhRy0W00]--></g></svg>